<?xml version="1.0" encoding="utf-8"?>
<!-- Generator: Adobe Illustrator 27.5.0, SVG Export Plug-In . SVG Version: 6.00 Build 0)  -->
<svg version="1.1" xmlns="http://www.w3.org/2000/svg" xmlns:xlink="http://www.w3.org/1999/xlink" x="0px" y="0px"
	 viewBox="0 0 500 500" style="enable-background:new 0 0 500 500;" xml:space="preserve">
<g id="Background_Simple">
	<g>
		<path style="opacity:0.7;fill:#FFFFFF;" d="M67.931,167.086c0,0-27.877,71.988,11.297,144.503
			c39.174,72.516,119.879,110.802,184.469,143.548c64.59,32.746,131.661,16.799,163.534-36.838
			c31.873-53.637-11.845-91.928-11.897-168.418c-0.051-76.49,11.447-96.742-29.963-161.364
			c-41.41-64.623-143.059-78.925-219.9-30.996C88.631,105.45,67.931,167.086,67.931,167.086z"/>
	</g>
	<g>
		<path style="fill:#92E3A9;" d="M41.082,293.532c-4.385-20.579-3.177-42.343,5.788-64.505
			c11.551-28.556,36.366-48.846,64.171-60.686c40.407-17.206,80.073-17.533,112.917-51.248c10.13-10.399,18.633-22.31,28.98-32.494
			c30.52-30.041,75.192-26.394,108.548-2.575c69.586,49.69,94.614,148.102,90.744,229.464c-1.737,36.513-19.168,70.495-46.759,94.45
			c-62.401,54.181-168.357,45.067-240.026,16.786C112,401.633,53.632,352.433,41.082,293.532z"/>
		<path style="opacity:0.7;fill:#FFFFFF;" d="M41.082,293.532c-4.385-20.579-3.177-42.343,5.788-64.505
			c11.551-28.556,36.366-48.846,64.171-60.686c40.407-17.206,80.073-17.533,112.917-51.248c10.13-10.399,18.633-22.31,28.98-32.494
			c30.52-30.041,75.192-26.394,108.548-2.575c69.586,49.69,94.614,148.102,90.744,229.464c-1.737,36.513-19.168,70.495-46.759,94.45
			c-62.401,54.181-168.357,45.067-240.026,16.786C112,401.633,53.632,352.433,41.082,293.532z"/>
	</g>
</g>
<g id="Doodles">
	<g>
		
			<ellipse transform="matrix(0.7071 -0.7071 0.7071 0.7071 -99.2866 119.0835)" style="fill:none;stroke:#263238;stroke-linecap:round;stroke-linejoin:round;stroke-miterlimit:10;" cx="94.103" cy="179.391" rx="17.993" ry="17.993"/>
		<path style="fill:none;stroke:#263238;stroke-linecap:round;stroke-linejoin:round;stroke-miterlimit:10;" d="M403.353,128.161
			c7.763-1.126,17.328,2.473,18.262,11.242c0.842,7.91-4.578,16.04-9.378,21.807c-4.533,5.447-10.781,11.603-17.679,13.96
			c-7.871,2.689-10.397-5.46-5.563-10.717c9.652-10.497,32.472-15.699,44.481-6.81c13.526,10.013,4.39,31.194-8.242,37.55
			c-4.113,2.069-7.731-0.549-4.773-4.893c2.24-3.29,6.509-4.804,10.252-5.485c7.463-1.356,19.084,0.305,21.902,8.676"/>
		<path style="fill:none;stroke:#263238;stroke-linecap:round;stroke-linejoin:round;stroke-miterlimit:10;" d="M387.024,135.052
			c3.718-2.454,7.713-4.577,11.98-5.897"/>
		<path style="fill:none;stroke:#263238;stroke-linecap:round;stroke-linejoin:round;stroke-miterlimit:10;" d="M379.407,140.93
			c1.259-1.156,2.588-2.237,3.948-3.272"/>
		<polyline style="fill:none;stroke:#263238;stroke-linecap:round;stroke-linejoin:round;stroke-miterlimit:10;" points="
			254.987,62.68 258.196,59.34 219.055,63.111 241.397,72.678 		"/>
		<polyline style="fill:none;stroke:#263238;stroke-linecap:round;stroke-linejoin:round;stroke-miterlimit:10;" points="
			243.194,73.447 258.196,79.872 249.644,68.242 253.73,63.988 		"/>
		<path style="fill:none;stroke:#263238;stroke-linecap:round;stroke-linejoin:round;stroke-miterlimit:10;" d="M328.006,64.445
			c0-4.361,0-8.721,0-13.082"/>
		<path style="fill:none;stroke:#263238;stroke-linecap:round;stroke-linejoin:round;stroke-miterlimit:10;" d="M328.006,74.064
			c0-1.894,0-3.787,0-5.681"/>
		
			<line style="fill:none;stroke:#263238;stroke-linecap:round;stroke-linejoin:round;stroke-miterlimit:10;" x1="341.933" y1="75.869" x2="351.344" y2="56.115"/>
		<path style="fill:none;stroke:#263238;stroke-linecap:round;stroke-linejoin:round;stroke-miterlimit:10;" d="M368.428,76.375
			c1.445-1.113,2.89-2.226,4.335-3.339"/>
		<path style="fill:none;stroke:#263238;stroke-linecap:round;stroke-linejoin:round;stroke-miterlimit:10;" d="M353.56,87.826
			c3.752-2.89,7.504-5.779,11.256-8.669"/>
		<polyline style="fill:none;stroke:#263238;stroke-linecap:round;stroke-linejoin:round;stroke-miterlimit:10;" points="
			50.781,273.267 30.747,268.04 33.912,295.368 65.56,277.123 52.545,273.727 		"/>
		
			<line style="fill:none;stroke:#263238;stroke-linecap:round;stroke-linejoin:round;stroke-miterlimit:10;" x1="443.231" y1="263.241" x2="465.385" y2="270.897"/>
		<path style="fill:none;stroke:#263238;stroke-linecap:round;stroke-linejoin:round;stroke-miterlimit:10;" d="M431.221,373.105
			c1.767,1.9,4.281,3.095,7.08,3.095c5.345,0,9.678-4.333,9.678-9.678c0-2.991-1.358-5.663-3.49-7.439"/>
		<path style="fill:none;stroke:#263238;stroke-linecap:round;stroke-linejoin:round;stroke-miterlimit:10;" d="M442.809,357.962
			c-1.347-0.711-2.88-1.118-4.508-1.118c-5.345,0-9.678,4.333-9.678,9.677c0,1.891,0.551,3.65,1.489,5.141"/>
		<path style="fill:none;stroke:#263238;stroke-linecap:round;stroke-linejoin:round;stroke-miterlimit:10;" d="M65.915,336.381
			c-2.867,7.404-5.734,14.808-8.6,22.212"/>
		<path style="fill:none;stroke:#263238;stroke-linecap:round;stroke-linejoin:round;stroke-miterlimit:10;" d="M68.725,329.123
			c-0.417,1.078-0.835,2.155-1.252,3.233"/>
		
			<line style="fill:none;stroke:#263238;stroke-linecap:round;stroke-linejoin:round;stroke-miterlimit:10;" x1="135.654" y1="202.22" x2="159.407" y2="215.965"/>
		<path style="fill:none;stroke:#263238;stroke-linecap:round;stroke-linejoin:round;stroke-miterlimit:10;" d="M109.335,119.98
			c-6.424,4.159-12.848,8.318-19.272,12.477"/>
		<path style="fill:none;stroke:#263238;stroke-linecap:round;stroke-linejoin:round;stroke-miterlimit:10;" d="M116.198,115.537
			c-0.982,0.636-1.964,1.272-2.946,1.908"/>
		<polygon style="fill:none;stroke:#263238;stroke-linecap:round;stroke-linejoin:round;stroke-miterlimit:10;" points="
			447.978,127.925 447.978,136.321 454.308,134.672 		"/>
	</g>
</g>
<g id="Character">
	<g>
		<g>
			<path style="fill:#92E3A9;stroke:#263238;stroke-linecap:round;stroke-linejoin:round;stroke-miterlimit:10;" d="
				M179.066,139.919c-1.112-3.184,10.902-17.289,10.902-17.289l6.504,6.908C196.472,129.538,181.242,146.146,179.066,139.919z"/>
			<g>
				<path style="fill:#BFBFBF;stroke:#263238;stroke-linecap:round;stroke-linejoin:round;stroke-miterlimit:10;" d="
					M162.64,119.466c3.494,3.103,5.856,0.718,5.856,0.718s-0.583,2.211,1.791,2.928c1.623,0.49,7.937-2.542,12.187-2.542
					c0,0,2.181,10.126,1.834,21.051c0,0,14.606,1.489,16.584-8.953c0,0-2.769-6.593-4.681-12.659
					c-2.581-8.187-2.93-10.437-4.286-12.165c-2.135-2.723-19.868-7.418-24.615-7.615c-4.747-0.198-7.319,17.903-13.253,26.286
					c0,0,1.879,1.088,4.253-0.494C159.943,124.929,162.64,119.466,162.64,119.466z"/>
				<path style="fill:none;stroke:#263238;stroke-linecap:round;stroke-linejoin:round;stroke-miterlimit:10;" d="M162.64,119.466
					c2.889-7.27,6.549-10.26,6.549-10.26s0.989-2.571,0-3.363"/>
				<path style="fill:none;stroke:#263238;stroke-linecap:round;stroke-linejoin:round;stroke-miterlimit:10;" d="M168.496,120.184
					c0.198-2.176,7.813-4.451,8.703-5.736c0.89-1.286,0-6.725,0-6.725"/>
				<path style="fill:none;stroke:#263238;stroke-linecap:round;stroke-linejoin:round;stroke-miterlimit:10;" d="M182.475,120.569
					c2.802,0,5.703-2.589,6.363-4.561"/>
				<path style="fill:none;stroke:#263238;stroke-linecap:round;stroke-linejoin:round;stroke-miterlimit:10;" d="M169.189,109.205
					c0,0,2.473,1.78,4.549,1.78c0,0,2.498,1.183,2.485,4.201"/>
				<path style="fill:none;stroke:#263238;stroke-linecap:round;stroke-linejoin:round;stroke-miterlimit:10;" d="M170.182,113.067
					c0,0-1.975,2.065-1.686,4.941"/>
				<path style="fill:none;stroke:#263238;stroke-linecap:round;stroke-linejoin:round;stroke-miterlimit:10;" d="M166.134,114.572
					c0,0,1.792-1.187,2.572,0"/>
			</g>
			<g>
				<defs>
					<path id="XMLID_90_" d="M297.02,185.582c0,0-12.328-8.967-22.877-7.385c0,0-56.176,6.33-57.494,6.33
						c0,0-15.033-57.069-17.934-61.897c0,0-0.527-4.037-2.11-4.564c0,0-6.636,18.198-17.538,21.853c0,0,1.035,3.465,3.409,3.465
						c0,0-0.376,61.978,8.328,69.363c8.703,7.385,82.203,13.451,82.203,13.451L297.02,185.582z"/>
				</defs>
				<use xlink:href="#XMLID_90_"  style="overflow:visible;fill:#92E3A9;"/>
				<clipPath id="XMLID_00000031203936774836600610000016600376558047263679_">
					<use xlink:href="#XMLID_90_"  style="overflow:visible;"/>
				</clipPath>
				<path style="opacity:0.2;clip-path:url(#XMLID_00000031203936774836600610000016600376558047263679_);" d="M256.77,220.33
					l-3.67,3.96c-22.43-2.35-56.54-6.66-62.3-11.54c-8.7-7.39-8.33-69.37-8.33-69.37c-1.54,0-2.51-1.45-3-2.48
					c8.1-0.33,17.992-8.443,17.992-8.443c1.54,8.67-9.732,18.623-9.732,18.623s-0.59,35.58,4.16,53.5S256.77,220.33,256.77,220.33z"
					/>
				
					<use xlink:href="#XMLID_90_"  style="overflow:visible;fill:none;stroke:#263238;stroke-linecap:round;stroke-linejoin:round;stroke-miterlimit:10;"/>
			</g>
			<path style="fill:#BFBFBF;stroke:#263238;stroke-linecap:round;stroke-linejoin:round;stroke-miterlimit:10;" d="
				M278.483,188.747c0,0,2.269-7.644,12.361-5.886c10.092,1.758,35.189,2.458,47.848-1.498c0,0-32.409,41.934-51.512,34.418
				C268.077,208.264,278.483,188.747,278.483,188.747z"/>
			<g>
				<path style="fill:#263238;" d="M332.609,96.907c0,0-2.929-9.993-10.209-7.846c-7.28,2.148-6.287,1.85-10.312-0.302
					c-4.025-2.152-6.495-0.311-7.868,2.757c-1.373,3.068-4.153,2.314-8.439,0.85c-4.286-1.464-8.043,0.42-7.852,4.541
					c0.191,4.12-5.332-0.168-8.4,4.431c-3.068,4.599-1.227,4.292-1.841,7.974c-0.614,3.682-7.057,5.83-5.83,9.205
					c1.227,3.375,6.137,9.205,1.534,11.659c-4.602,2.455-6.14,10.136-1.689,12.432c4.451,2.296-3.706,9.2-0.766,15.489
					c2.678,5.727,10.125,7.057,6.75,12.887c-1.475,2.549-1.015,4.569-0.029,6.037c0.798,1.188,2.655,0.687,2.741-0.741
					c0.045-0.751,0.232-1.527,0.669-2.227c1.529-2.455,3.639,0,6.112-4.602c0,0-1.589,5.216,3.664,7.057
					c2.74,0.96,3.221,2.589,3.054,3.927c-0.131,1.05,1.122,1.712,1.888,0.982c0.841-0.802,1.487-2.123,1.231-4.295
					c0,0,8.596,7.057,14.73,5.523c6.134-1.534,14.112-3.682,14.418-8.284c0,0,1.589,2.042,1.809,4.512
					c0.117,1.313,1.721,1.832,2.552,0.809c1.061-1.307,1.963-2.992,2.082-5.014c0,0,0.752,2.406,2.992,3.638
					c1.339,0.737,2.864-0.569,2.519-2.059c-0.283-1.223-0.164-2.579,1.24-3.421c3.068-1.841,5.216-5.216,3.375-9.512
					c0,0,4.612,3.068,3.073,7.671c-0.662,1.979-0.302,3.39,0.47,4.332c0.704,0.859,2.071,0.052,1.633-0.969
					c-0.4-0.932-0.469-2.081,0.346-3.363c2.148-3.375,7.681-7.47,3.386-12.226c-4.296-4.756-1.238-7.718-1.238-7.718
					s-0.614,3.068,4.602,5.063c5.216,1.994,1.967,4.865,2.525,6.962c0.23,0.866,0.641,1.525,1.138,2.027
					c0.912,0.921,2.417-0.174,1.793-1.31c-0.558-1.016-0.829-2.168-0.24-3.23c2.632-4.738-4.295-6.914-4.998-11.053
					c-0.683-4.022,0.302-8.805,0.718-12.856c0.362-3.516,0.649-6.188-1.57-9.212c-1.449-1.974-3.271-3.783-3.962-6.133
					c-0.525-1.788-0.332-3.697-0.16-5.552c0.171-1.855,0.308-3.78-0.319-5.534c-1.277-3.571-5.511-2.974-7.388-5.976
					c-1.752-2.803-0.247-6.559-3.626-8.461C336.836,94.602,334.271,95.297,332.609,96.907z"/>
				<path style="fill:#BFBFBF;stroke:#263238;stroke-linecap:round;stroke-linejoin:round;stroke-miterlimit:10;" d="M298.21,189.6
					c4.82-3.06,2.54-13.11,0.58-19.23c-0.92-2.89-1.77-4.91-1.77-4.91l0.08-0.04l25.3-13.05c-3.2,13.46,0,31.85,0,31.85"/>
				<path style="fill:#263238;" d="M307.69,165.42c0,0-3.14,4.77-8.9,4.95c-0.92-2.89-1.77-4.91-1.77-4.91l0.08-0.04H307.69z"/>
				<path style="fill:#BFBFBF;stroke:#263238;stroke-linecap:round;stroke-linejoin:round;stroke-miterlimit:10;" d="
					M319.297,160.063c7.822-4.919,14.388-12.39,16.045-23.13c3.029-19.637,2.832-37.582-30.912-35.416
					c-14.781,0.949-20.507,15.511-20.39,20.09c0.271,10.611-8.194,29.28,2.289,44.784c1.557,2.302,11.752,2.386,22.481-1.344"/>
				<path style="fill:none;stroke:#263238;stroke-linecap:round;stroke-linejoin:round;stroke-miterlimit:10;" d="M301.335,124.576
					c0,0,5.313-1.952,8.374,5.877"/>
				<path style="fill:none;stroke:#263238;stroke-linecap:round;stroke-linejoin:round;stroke-miterlimit:10;" d="M290.32,123.688
					c0,0-2.854-2.428-6.279-2.081"/>
				<path style="fill:none;stroke:#263238;stroke-linecap:round;stroke-linejoin:round;stroke-miterlimit:10;" d="M291.024,135.083
					c-2.764,4.524-6.122,2.277-5.97,4.524c0.126,1.87,4.441,5.149,4.441,5.149"/>
				<path style="fill:#263238;" d="M305.444,135.149c-0.296,1.232-1.221,2.067-2.066,1.864c-0.845-0.203-1.29-1.366-0.995-2.599
					c0.296-1.232,1.221-2.067,2.066-1.864C305.294,132.753,305.74,133.917,305.444,135.149z"/>
				<path style="fill:#263238;" d="M289.176,132.12c-0.199,1.252-1.057,2.155-1.915,2.019c-0.858-0.137-1.392-1.262-1.193-2.514
					c0.199-1.252,1.057-2.155,1.915-2.019C288.842,129.742,289.376,130.868,289.176,132.12z"/>
				<g>
					<defs>
						<path id="XMLID_89_" d="M298.52,149.18c0,0-0.41,0.97-1.13,2.15c-1.29,2.1-3.58,4.87-6.37,4.01c-0.85-0.26-1.24-1.47-1.4-2.77
							c-0.23-1.74-0.06-3.65-0.06-3.65s0.974,0.29,4.45,0.501C297.02,149.604,298.52,149.18,298.52,149.18z"/>
					</defs>
					<use xlink:href="#XMLID_89_"  style="overflow:visible;fill:#FFFFFF;"/>
					<clipPath id="XMLID_00000078760332062354271430000017246126551440183962_">
						<use xlink:href="#XMLID_89_"  style="overflow:visible;"/>
					</clipPath>
					<path style="opacity:0.4;clip-path:url(#XMLID_00000078760332062354271430000017246126551440183962_);" d="M298.52,149.18
						c0,0-0.41,0.97-1.13,2.15c-2.69-0.48-5.73,0.42-7.77,1.24c-0.23-1.74-0.06-3.65-0.06-3.65L298.52,149.18z"/>
					
						<use xlink:href="#XMLID_89_"  style="overflow:visible;fill:none;stroke:#263238;stroke-linecap:round;stroke-linejoin:round;stroke-miterlimit:10;"/>
				</g>
				<path style="fill:#263238;" d="M304.22,109.619c0,0,0.833-1.841,2.491,1.841c1.658,3.682-5.34,7.34,0,10.113
					c5.34,2.773,5.563,9.324,2.997,11.879c-2.566,2.554,4.184,3.781,5.104,6.236c0.92,2.455-1.841,4.456-1.227,7.444
					c0.614,2.988,4.462,5.927,4.379,7.526c-0.083,1.599-3.448,4.142-1.152,6.859c2.296,2.717,8.74,1.057,9.353,6.49
					c0,0,19.33-21.49,19.637-41.472c0.307-19.983-14.114-28.267-28.841-29.494c-14.727-1.227-37.432,5.873-39.273,31.471
					c0,0,0.692-1.622,3.38-1.976c2.688-0.355,3.983-4.028,3.677-8.017s2.381-1.534,6.1-2.455c3.719-0.921,2.473-6.137,4.937-7.057
					C298.245,108.085,300.07,112.994,304.22,109.619z"/>
				<path style="fill:none;stroke:#263238;stroke-linecap:round;stroke-linejoin:round;stroke-miterlimit:10;" d="M290.844,101.016
					c-0.153,2.455-7.671,0.307-11.506,2.455c-3.835,2.148-2.915,5.83-2.608,7.977c0.307,2.148-3.168,4.909-6.033,6.597
					c-2.865,1.688-2.865,5.126,0.817,8.393c3.682,3.267,0.544,4.187-2.873,7.102c-3.417,2.915-3.302,6.477,0,8.591"/>
				<path style="fill:none;stroke:#263238;stroke-linecap:round;stroke-linejoin:round;stroke-miterlimit:10;" d="M301.335,107.931
					c0,0,6.268,1.227,4.427,4.756c-1.841,3.529-4.427,7.917,0.95,11.87c5.377,3.953-2.33,8.38,1.045,11.909
					c3.375,3.528,6.823,3.375,4.332,9.205c-2.491,5.83,1.958,7.304,1.958,7.304"/>
				<path style="fill:none;stroke:#263238;stroke-linecap:round;stroke-linejoin:round;stroke-miterlimit:10;" d="M288.26,148.525
					c0,0,6.149,1.597,10.905,0.527"/>
				<path style="fill:none;stroke:#FFFFFF;stroke-linecap:round;stroke-linejoin:round;stroke-miterlimit:10;" d="M331.238,158.132
					c-0.715,0.933-0.303,2.036,0.535,2.755"/>
				<path style="fill:none;stroke:#FFFFFF;stroke-linecap:round;stroke-linejoin:round;stroke-miterlimit:10;" d="M331.802,149.074
					c2.702,1.438,3.489,3.714,1.749,6.38"/>
				<path style="fill:none;stroke:#FFFFFF;stroke-linecap:round;stroke-linejoin:round;stroke-miterlimit:10;" d="M314.852,111.221
					C315,116,317,121,322,124c2,2,1,4,0,7c0,4,6,4,7,7c0,3-5,6-0.11,9.56"/>
				<path style="fill:none;stroke:#FFFFFF;stroke-linecap:round;stroke-linejoin:round;stroke-miterlimit:10;" d="M312.387,102.878
					c1.305,1.442,1.968,3.287,2.23,5.191"/>
				<path style="fill:none;stroke:#FFFFFF;stroke-linecap:round;stroke-linejoin:round;stroke-miterlimit:10;" d="M344.673,151.076
					c-0.175,1.035-0.118,2.109,0.301,3.078"/>
				<path style="fill:none;stroke:#FFFFFF;stroke-linecap:round;stroke-linejoin:round;stroke-miterlimit:10;" d="M338.532,139.552
					c-1.076,2.901,1.586,2.637,3.473,2.856c3.117,0.362,4.056,2.24,3.359,5.383"/>
				<path style="fill:none;stroke:#FFFFFF;stroke-linecap:round;stroke-linejoin:round;stroke-miterlimit:10;" d="M326.527,112.418
					c0.539,5.79,9.706,5.041,8.1,11.726c-0.747,3.11-0.618,4.983,1.819,7.62c1.268,1.372,3.919,2.3,2.943,4.557"/>
				<path style="fill:none;stroke:#FFFFFF;stroke-linecap:round;stroke-linejoin:round;stroke-miterlimit:10;" d="M349.981,138.156
					c-0.272,1.045-0.402,2.129-0.21,3.198"/>
				<path style="fill:none;stroke:#FFFFFF;stroke-linecap:round;stroke-linejoin:round;stroke-miterlimit:10;" d="M334.312,104.901
					c2.027,0.142,1.406,2.696,2.006,4.042c0.811,1.818,2.395,2.275,3.98,3.249c3.209,1.973,2.893,3.818,2.524,7.213
					c-0.428,3.941,0.842,5.579,4.134,7.503c3.371,1.971,5.222,3.644,4.02,7.793"/>
				<path style="fill:none;stroke:#FFFFFF;stroke-linecap:round;stroke-linejoin:round;stroke-miterlimit:10;" d="M285.967,109.619
					c-2.926,1.408-7.93,1.732-7.09,5.972c0.835,4.216,4.488,6.23,0.207,9.938c-3.625,3.139-3.228,4.79-0.859,8.492
					c1.984,3.101,2.544,5.901,0.075,9.018"/>
				<path style="fill:none;stroke:#FFFFFF;stroke-linecap:round;stroke-linejoin:round;stroke-miterlimit:10;" d="M297.02,103.344
					C292,99,291,105,288.893,107.748"/>
			</g>
			<g>
				<defs>
					<path id="XMLID_91_" d="M283.11,182.022c0,0-9.136,10.08,1.183,17.869c10.319,7.789,47.817-18.477,47.817-18.477
						s13.517-3.442,20.617,1.087c7.099,4.529,0.458,59.146-14.034,82.774c-4.288,6.99-9.429,17.479-9.429,17.479
						s1.45,9.138-6.864,11.908c-15.785,5.26-56.279,5.008-68.086-1.568c-13.86-7.72,0.049-5.329,0.868-47.376
						c0,0-6.068-15.514-3.759-26.625c0.859-4.134,3.369-10.131,6.902-16.176"/>
				</defs>
				<use xlink:href="#XMLID_91_"  style="overflow:visible;fill:#92E3A9;"/>
				<clipPath id="XMLID_00000013877522195820879060000010336009775460255676_">
					<use xlink:href="#XMLID_91_"  style="overflow:visible;"/>
				</clipPath>
				<path style="opacity:0.2;clip-path:url(#XMLID_00000013877522195820879060000010336009775460255676_);" d="M338.69,265.27
					c-4.29,6.99-9.43,17.48-9.43,17.48s1.45,9.14-6.86,11.91c-15.79,5.26-56.28,5.01-68.09-1.57c-13.86-7.72,0.05-5.33,0.87-47.37
					c0,0-2.16-5.52-3.4-12.33c9.14,5.27,19.77,4.76,19.77,4.76c9.11-18.88,22.16-15.36,22.16-15.36s3.54-3.16,7.62-6.11
					c4.09-2.94,16.89-0.71,16.89-0.71l14.92-2.98c-0.28-5.54,5.14-5.03,5.14-5.03l2.07,1.94c-1.21-4.58,0-7.37,0-7.37l13.1,16.47
					C350.75,235.6,345.62,253.98,338.69,265.27z"/>
				
					<use xlink:href="#XMLID_91_"  style="overflow:visible;fill:none;stroke:#263238;stroke-linecap:round;stroke-linejoin:round;stroke-miterlimit:10;"/>
			</g>
			<path style="fill:none;stroke:#263238;stroke-linecap:round;stroke-linejoin:round;stroke-miterlimit:10;" d="M250.234,210.515
				c0.375,1.907,0.977,3.809,2.04,5.45"/>
			<path style="fill:none;stroke:#263238;stroke-linecap:round;stroke-linejoin:round;stroke-miterlimit:10;" d="M249.681,202.527
				c-0.082,1.643-0.033,3.296,0.117,4.934"/>
			<path style="fill:none;stroke:#263238;stroke-linecap:round;stroke-linejoin:round;stroke-miterlimit:10;" d="M216.648,184.527
				c0,0-7.319,7.319-5.934,12.857"/>
			<path style="fill:none;stroke:#263238;stroke-linecap:round;stroke-linejoin:round;stroke-miterlimit:10;" d="M211.833,186.007
				c1.559-0.898,3.046-1.93,4.374-3.146"/>
			<path style="fill:none;stroke:#263238;stroke-linecap:round;stroke-linejoin:round;stroke-miterlimit:10;" d="M205.967,188.681
				c1.01-0.343,2-0.747,2.971-1.19"/>
			<path style="fill:none;stroke:#263238;stroke-linecap:round;stroke-linejoin:round;stroke-miterlimit:10;" d="M182.475,143.385
				c0,0,10.635-2.176,14.987-10.928"/>
			<path style="fill:none;stroke:#263238;stroke-linecap:round;stroke-linejoin:round;stroke-miterlimit:10;" d="M298.019,203.681
				c1.311-0.309,2.61-0.683,3.873-1.154"/>
			<path style="fill:none;stroke:#263238;stroke-linecap:round;stroke-linejoin:round;stroke-miterlimit:10;" d="M279.549,181.169
				c-2.705,4.293-4.503,10.09-2.754,15.05c2.65,7.516,11.188,9.058,18.155,8.047"/>
			<path style="fill:none;stroke:#263238;stroke-linecap:round;stroke-linejoin:round;stroke-miterlimit:10;" d="M279.498,189.6
				c0,0,7.765,6.004,12.315,7.785"/>
			<g>
				<g>
					<defs>
						<path id="XMLID_93_" d="M334.481,225.389c0,0-23.199,1.054-32.336,0.109c-5.871-0.607-7.742,2.31-15.763,3.844
							c-3.018,0.577-9.325,9.898-9.325,9.898l1.026,12.212c0,0,7.004,5.046,7.899,3.625c0.895-1.421-2.449-4.698-2.449-4.698
							l6.175,0.994c0,0,0.403-2.433-1.895-4.242l3.586-4.045c0,0,4.607,1.397,9.661-3.068l34.656,1.331L334.481,225.389z"/>
					</defs>
					<use xlink:href="#XMLID_93_"  style="overflow:visible;fill:#BFBFBF;"/>
					<clipPath id="XMLID_00000085966731002742185630000009869195878915809164_">
						<use xlink:href="#XMLID_93_"  style="overflow:visible;"/>
					</clipPath>
					<path style="opacity:0.2;clip-path:url(#XMLID_00000085966731002742185630000009869195878915809164_);" d="M335.72,241.35
						l-34.66-1.33c-5.05,4.46-9.66,3.07-9.66,3.07l-3.59,4.04c2.3,1.81,1.9,4.24,1.9,4.24l-6.18-0.99c0,0,3.35,3.28,2.45,4.7
						c-0.89,1.42-7.9-3.63-7.9-3.63l-1.02-12.21c0,0,2.25-3.33,4.71-6.13c6.56,3.99,23.59,0.96,23.59,0.96
						c0.11-2.95,1.86-6.08,3.33-8.23c10.63,0.24,25.79-0.45,25.79-0.45L335.72,241.35z"/>
					
						<use xlink:href="#XMLID_93_"  style="overflow:visible;fill:none;stroke:#263238;stroke-linecap:round;stroke-linejoin:round;stroke-miterlimit:10;"/>
				</g>
				<path style="fill:none;stroke:#263238;stroke-linecap:round;stroke-linejoin:round;stroke-miterlimit:10;" d="M291.399,243.088
					c0,0-3.749-0.298-5.418-4.941"/>
				<path style="fill:none;stroke:#263238;stroke-linecap:round;stroke-linejoin:round;stroke-miterlimit:10;" d="M290.125,242.749
					c0,0-6.159,4.992-9.545,1.559"/>
				<path style="fill:none;stroke:#263238;stroke-linecap:round;stroke-linejoin:round;stroke-miterlimit:10;" d="M283.142,245.494
					c0,0,0.971,3.336,0.391,4.887"/>
				<path style="fill:none;stroke:#263238;stroke-linecap:round;stroke-linejoin:round;stroke-miterlimit:10;" d="M287.813,247.133
					c0,0-1.855,0.662-3.048,0.498"/>
			</g>
		</g>
		<g>
			<g>
				<defs>
					<path id="XMLID_94_" d="M413.58,242.32v214.33c0,1.43-1.16,2.59-2.6,2.59H87.02c-1.44,0-2.6-1.16-2.6-2.59V242.32
						c0-1.43,1.16-2.59,2.6-2.59h323.96C412.42,239.73,413.58,240.89,413.58,242.32z"/>
				</defs>
				<use xlink:href="#XMLID_94_"  style="overflow:visible;fill:#FFFFFF;"/>
				<clipPath id="XMLID_00000114060915203505735990000006193166632765739963_">
					<use xlink:href="#XMLID_94_"  style="overflow:visible;"/>
				</clipPath>
				<path style="opacity:0.2;clip-path:url(#XMLID_00000114060915203505735990000006193166632765739963_);" d="M413.58,242.32v9.63
					c-9.06,3.16-22.36,5.59-33.12,5.07c-14.45-0.7-68.47-12.88-87.66-17.29h118.18C412.42,239.73,413.58,240.89,413.58,242.32z"/>
				<use xlink:href="#XMLID_94_"  style="overflow:visible;fill:none;stroke:#263238;stroke-miterlimit:10;"/>
			</g>
			<path style="fill:#263238;" d="M110.13,239.73v219.51H87.02c-1.44,0-2.6-1.16-2.6-2.59V242.32c0-1.43,1.16-2.59,2.6-2.59H110.13z
				"/>
			<g>
				<polygon style="fill:#92E3A9;" points="97.275,249.895 90.064,253.952 97.275,258.008 104.486,253.952 				"/>
				<polygon style="fill:#92E3A9;" points="97.275,259.642 92.217,256.797 90.064,258.008 97.275,262.065 104.486,258.008 
					102.333,256.797 				"/>
				<polygon style="fill:#92E3A9;" points="97.275,263.698 92.217,260.853 90.064,262.065 97.275,266.122 104.486,262.065 
					102.332,260.853 				"/>
			</g>
			<g>
				<g>
					<g>
						<defs>
							<path id="XMLID_86_" d="M176.196,280.805c0,7.627-3.179,14.517-8.285,19.409c-2.172,2.085-4.686,3.806-7.461,5.066
								c-3.394,1.554-7.175,2.418-11.156,2.418c-1.086,0-2.157-0.064-3.211-0.19c-7.128-0.848-13.392-4.48-17.689-9.776
								c-3.742-4.622-5.994-10.513-5.994-16.928c0-14.858,12.036-26.902,26.894-26.902
								C164.152,253.903,176.196,265.947,176.196,280.805z"/>
						</defs>
						<use xlink:href="#XMLID_86_"  style="overflow:visible;fill:#92E3A9;"/>
						<clipPath id="XMLID_00000173880489543164278310000012892893923203010443_">
							<use xlink:href="#XMLID_86_"  style="overflow:visible;"/>
						</clipPath>
						<path style="opacity:0.6;clip-path:url(#XMLID_00000173880489543164278310000012892893923203010443_);fill:#FFFFFF;" d="
							M176.196,280.805c0,7.627-3.179,14.517-8.285,19.409c-2.172,2.085-4.686,3.806-7.461,5.066
							c-3.394,1.554-7.175,2.418-11.156,2.418c-1.086,0-2.157-0.064-3.211-0.19c-7.128-0.848-13.392-4.48-17.689-9.776
							c-3.742-4.622-5.994-10.513-5.994-16.928c0-14.858,12.036-26.902,26.894-26.902
							C164.152,253.903,176.196,265.947,176.196,280.805z"/>
						
							<use xlink:href="#XMLID_86_"  style="overflow:visible;fill:none;stroke:#263238;stroke-linecap:round;stroke-linejoin:round;stroke-miterlimit:10;"/>
					</g>
					<g>
						<path style="fill:#BFBFBF;stroke:#263238;stroke-linecap:round;stroke-linejoin:round;stroke-miterlimit:10;" d="
							M160.45,305.281c-3.394,1.554-7.175,2.418-11.156,2.418c-1.086,0-2.157-0.064-3.211-0.19
							c-5.923-4.258-11.306-11.219-11.306-11.219c1.078,0.341,2.387,0.595,3.814,0.777c0.912,0.119,1.879,0.206,2.87,0.27
							c2.957,0.198,6.113,0.167,8.737,0c1.657-0.103,3.108-0.254,4.155-0.436c1.974-0.349,3.219,0.19,3.972,0.848
							c0.825,0.706,1.078,1.554,1.078,1.554S160.989,302.268,160.45,305.281z"/>
						<g>
							<path style="fill:#263238;" d="M137.267,261.74c0,0,1.198-4.088,4.176-3.209c2.978,0.879,2.572,0.757,4.218-0.124
								c1.646-0.88,2.657-0.127,3.218,1.128c0.562,1.255,1.699,0.947,3.452,0.348c1.753-0.599,3.29,0.172,3.212,1.857
								c-0.078,1.685,2.181-0.069,3.436,1.813c1.255,1.881,0.502,1.756,0.753,3.262c0.251,1.506,2.887,2.385,2.385,3.765
								c-0.502,1.38-2.51,3.765-0.628,4.769c1.883,1.004,2.511,4.146,0.691,5.085c-1.82,0.939,1.516,3.763,0.313,6.336
								c-1.095,2.343-4.142,2.887-2.761,5.271c0.604,1.042,0.415,1.869,0.012,2.469c-0.326,0.486-1.086,0.281-1.121-0.303
								c-0.018-0.307-0.095-0.624-0.273-0.911c-0.625-1.004-1.488,0-2.5-1.882c0,0,0.65,2.133-1.499,2.887
								c-1.121,0.393-1.318,1.059-1.249,1.606c0.053,0.43-0.459,0.7-0.772,0.402c-0.344-0.328-0.608-0.868-0.504-1.757
								c0,0-3.516,2.886-6.025,2.259c-2.509-0.628-5.772-1.506-5.898-3.389c0,0-0.65,0.835-0.74,1.845
								c-0.048,0.537-0.704,0.749-1.044,0.331c-0.434-0.534-0.803-1.224-0.852-2.051c0,0-0.307,0.984-1.224,1.488
								c-0.548,0.301-1.171-0.233-1.03-0.842c0.116-0.5,0.067-1.055-0.507-1.399c-1.255-0.753-2.133-2.134-1.38-3.891
								c0,0-1.887,1.255-1.257,3.138c0.271,0.809,0.123,1.387-0.192,1.772c-0.288,0.351-0.847,0.021-0.668-0.396
								c0.164-0.381,0.192-0.851-0.142-1.376c-0.878-1.381-3.142-3.056-1.385-5.001c1.757-1.945,0.506-3.157,0.506-3.157
								s0.251,1.255-1.883,2.071c-2.134,0.816-0.805,1.99-1.033,2.848c-0.094,0.354-0.262,0.624-0.465,0.829
								c-0.373,0.377-0.989-0.071-0.733-0.536c0.228-0.416,0.339-0.887,0.098-1.321c-1.076-1.938,1.757-2.828,2.044-4.521
								c0.279-1.645-0.123-3.602-0.294-5.259c-0.148-1.438-0.266-2.531,0.642-3.768c0.593-0.808,1.338-1.547,1.62-2.509
								c0.215-0.731,0.136-1.512,0.066-2.271c-0.07-0.759-0.126-1.546,0.131-2.264c0.522-1.461,2.254-1.217,3.022-2.445
								c0.717-1.147,0.101-2.683,1.483-3.461C135.538,260.797,136.587,261.081,137.267,261.74z"/>
							<path style="fill:#BFBFBF;stroke:#263238;stroke-linecap:round;stroke-linejoin:round;stroke-miterlimit:10;" d="
								M151.338,299.655c-1.972-1.252-1.039-5.363-0.237-7.866c0.376-1.182,0.724-2.008,0.724-2.008l-0.033-0.016l-10.349-5.338
								c1.309,5.506,0,13.028,0,13.028"/>
							<path style="fill:#263238;" d="M147.46,289.765c0,0,1.284,1.951,3.64,2.025c0.376-1.182,0.724-2.008,0.724-2.008
								l-0.033-0.016H147.46z"/>
							<path style="fill:#BFBFBF;stroke:#263238;stroke-linecap:round;stroke-linejoin:round;stroke-miterlimit:10;" d="
								M142.712,287.573c-3.199-2.012-5.885-5.068-6.563-9.461c-1.239-8.033-1.159-15.373,12.644-14.487
								c6.046,0.388,8.388,6.345,8.34,8.218c-0.111,4.34,3.352,11.977-0.936,18.319c-0.637,0.942-4.807,0.976-9.196-0.55"/>
							<path style="fill:none;stroke:#263238;stroke-linecap:round;stroke-linejoin:round;stroke-miterlimit:10;" d="
								M150.059,273.058c0,0-2.173-0.798-3.425,2.404"/>
							<path style="fill:none;stroke:#263238;stroke-linecap:round;stroke-linejoin:round;stroke-miterlimit:10;" d="
								M154.565,272.694c0,0,1.167-0.993,2.568-0.851"/>
							<path style="fill:none;stroke:#263238;stroke-linecap:round;stroke-linejoin:round;stroke-miterlimit:10;" d="
								M154.277,277.355c1.131,1.85,2.504,0.932,2.442,1.85c-0.052,0.765-1.817,2.106-1.817,2.106"/>
							<path style="fill:#263238;" d="M148.379,277.383c0.121,0.504,0.499,0.845,0.845,0.763c0.346-0.083,0.528-0.559,0.407-1.063
								c-0.121-0.504-0.499-0.846-0.845-0.763C148.44,276.403,148.258,276.879,148.379,277.383z"/>
							<path style="fill:#263238;" d="M155.033,276.143c0.081,0.512,0.432,0.882,0.783,0.826c0.351-0.056,0.57-0.516,0.488-1.028
								s-0.432-0.882-0.783-0.826C155.17,275.171,154.951,275.631,155.033,276.143z"/>
							<path style="fill:#FFFFFF;stroke:#263238;stroke-linecap:round;stroke-linejoin:round;stroke-miterlimit:10;" d="
								M151.21,283.12c0,0,1.29,3.069,3.067,2.522c0.816-0.251,0.599-2.629,0.599-2.629"/>
							<path style="fill:#263238;" d="M148.879,266.94c0,0-0.341-0.753-1.019,0.753c-0.678,1.506,2.184,3.002,0,4.137
								c-2.184,1.135-2.275,3.814-1.226,4.859c1.05,1.045-1.712,1.547-2.088,2.551s0.753,1.823,0.502,3.045
								c-0.251,1.222-1.825,2.424-1.791,3.078c0.034,0.654,1.41,1.694,0.471,2.806c-0.939,1.111-3.575,0.433-3.826,2.655
								c0,0-7.907-8.79-8.032-16.964c-0.126-8.174,5.773-11.563,11.797-12.064c6.024-0.502,15.311,2.402,16.064,12.873
								c0,0-0.283-0.663-1.383-0.808c-1.1-0.145-1.629-1.648-1.504-3.279c0.125-1.632-0.974-0.628-2.495-1.004
								c-1.521-0.376-1.012-2.51-2.019-2.887S150.577,268.32,148.879,266.94z"/>
							<path style="fill:none;stroke:#263238;stroke-linecap:round;stroke-linejoin:round;stroke-miterlimit:10;" d="
								M154.351,263.421c0.063,1.004,3.138,0.125,4.706,1.004c1.569,0.879,1.192,2.385,1.067,3.263
								c-0.126,0.879,1.296,2.008,2.468,2.698c1.172,0.69,1.172,2.097-0.334,3.433c-1.506,1.336-0.222,1.713,1.175,2.905
								c1.398,1.192,1.351,2.649,0,3.514"/>
							<path style="fill:none;stroke:#263238;stroke-linecap:round;stroke-linejoin:round;stroke-miterlimit:10;" d="
								M150.059,266.249c0,0-2.564,0.502-1.811,1.945c0.753,1.443,1.811,3.238-0.389,4.855c-2.199,1.617,0.953,3.428-0.427,4.871
								c-1.38,1.443-2.791,1.381-1.772,3.765c1.019,2.385-0.801,2.988-0.801,2.988"/>
							<path style="fill:none;stroke:#263238;stroke-linecap:round;stroke-linejoin:round;stroke-miterlimit:10;" d="
								M155.408,282.854c0,0-2.515,0.653-4.461,0.216"/>
						</g>
						<path style="fill:#92E3A9;stroke:#263238;stroke-linecap:round;stroke-linejoin:round;stroke-miterlimit:10;" d="
							M167.91,300.214c-2.172,2.085-4.686,3.806-7.461,5.066c-3.394,1.554-7.175,2.418-11.156,2.418
							c-1.086,0-2.157-0.064-3.211-0.19c-7.128-0.848-13.392-4.48-17.689-9.776c0.166-0.484,0.38-0.817,0.642-0.983
							c2.91-1.847,8.436-0.444,8.436-0.444s0.412,0.285,1.118,0.761c3.607,2.387,14.906,9.459,18.442,6.795
							c2.815-2.117,2.093-4.654,1.292-6.113c-0.396-0.729-0.809-1.189-0.809-1.189S162.305,294.617,167.91,300.214z"/>
					</g>
				</g>
				<g>
					
						<ellipse transform="matrix(0.7071 -0.7071 0.7071 0.7071 -160.4169 209.4385)" style="fill:#263238;" cx="172.606" cy="298.36" rx="9.339" ry="9.339"/>
					<path style="fill:none;stroke:#FFFFFF;stroke-miterlimit:10;" d="M174.024,303.274h-2.836c-1.931,0-3.496-1.565-3.496-3.496
						v-2.836c0-1.931,1.565-3.496,3.496-3.496h2.836c1.931,0,3.496,1.565,3.496,3.496v2.836
						C177.52,301.708,175.955,303.274,174.024,303.274z"/>
					<path style="fill:none;stroke:#FFFFFF;stroke-miterlimit:10;" d="M174.41,298.36c0,0.996-0.808,1.804-1.803,1.804
						c-0.996,0-1.804-0.807-1.804-1.804c0-0.996,0.807-1.803,1.804-1.803C173.602,296.556,174.41,297.363,174.41,298.36z"/>
					<path style="fill:#FFFFFF;" d="M175.887,295.962c0,0.328-0.266,0.594-0.594,0.594c-0.328,0-0.594-0.266-0.594-0.594
						c0-0.328,0.266-0.594,0.594-0.594C175.621,295.369,175.887,295.634,175.887,295.962z"/>
				</g>
			</g>
			<path style="fill:#263238;" d="M220.762,277.212h-33.964c-1.982,0-3.589,1.607-3.589,3.589s1.607,3.589,3.589,3.589h33.964
				c1.982,0,3.589-1.607,3.589-3.589S222.745,277.212,220.762,277.212z"/>
			<path style="opacity:0.6;fill:#263238;" d="M270.133,251.836h-24.526c-1.431,0-2.592,1.16-2.592,2.592
				c0,1.431,1.16,2.592,2.592,2.592h24.526c1.431,0,2.592-1.16,2.592-2.592C272.725,252.997,271.565,251.836,270.133,251.836z"/>
			<line style="fill:#FFFFFF;stroke:#263238;stroke-miterlimit:10;" x1="233.626" y1="245.494" x2="233.626" y2="453.612"/>
			<g>
				<circle style="fill:#BFBFBF;stroke:#263238;stroke-miterlimit:10;" cx="138.059" cy="342.373" r="12.33"/>
				<path style="fill:#92E3A9;stroke:#263238;stroke-linecap:round;stroke-linejoin:round;stroke-miterlimit:10;" d="
					M154.74,350.352c0,2.403-1.948,4.352-4.352,4.352c-2.403,0-4.352-1.948-4.352-4.352c0-2.403,1.948-4.352,4.352-4.352
					C152.792,346,154.74,347.948,154.74,350.352z"/>
			</g>
			<g>
				<circle style="fill:#BFBFBF;stroke:#263238;stroke-miterlimit:10;" cx="138.059" cy="382.855" r="12.33"/>
				<path style="fill:#92E3A9;stroke:#263238;stroke-linecap:round;stroke-linejoin:round;stroke-miterlimit:10;" d="
					M154.74,390.834c0,2.403-1.948,4.352-4.352,4.352c-2.403,0-4.352-1.948-4.352-4.352c0-2.403,1.948-4.352,4.352-4.352
					C152.792,386.482,154.74,388.43,154.74,390.834z"/>
			</g>
			<g>
				
					<ellipse transform="matrix(0.7071 -0.7071 0.7071 0.7071 -258.9084 221.6149)" style="fill:#BFBFBF;stroke:#263238;stroke-miterlimit:10;" cx="138.059" cy="423.338" rx="12.33" ry="12.33"/>
				<path style="fill:#92E3A9;stroke:#263238;stroke-linecap:round;stroke-linejoin:round;stroke-miterlimit:10;" d="
					M154.74,431.316c0,2.403-1.948,4.352-4.352,4.352c-2.403,0-4.352-1.948-4.352-4.352c0-2.403,1.948-4.352,4.352-4.352
					C152.792,426.964,154.74,428.913,154.74,431.316z"/>
			</g>
			<g style="opacity:0.3;">
				<g>
					<rect x="246.055" y="265.241" style="opacity:0.4;" width="159.824" height="47.641"/>
					<rect x="246.055" y="391.241" style="opacity:0.4;" width="159.824" height="47.641"/>
					<rect x="246.055" y="317.241" style="opacity:0.4;" width="159.824" height="47.641"/>
				</g>
			</g>
			<g>
				<g>
					<defs>
						<rect id="XMLID_95_" x="243.055" y="263.241" width="159.824" height="47.641"/>
					</defs>
					<use xlink:href="#XMLID_95_"  style="overflow:visible;fill:#92E3A9;"/>
					<clipPath id="XMLID_00000155865533367898009470000007909711065298109568_">
						<use xlink:href="#XMLID_95_"  style="overflow:visible;"/>
					</clipPath>
					
						<rect x="243.055" y="263.241" style="opacity:0.6;clip-path:url(#XMLID_00000155865533367898009470000007909711065298109568_);fill:#FFFFFF;" width="159.824" height="47.641"/>
					<use xlink:href="#XMLID_95_"  style="overflow:visible;fill:none;stroke:#263238;stroke-miterlimit:10;"/>
				</g>
				<g>
					<rect x="248.59" y="268.04" style="fill:#263238;" width="41.99" height="32.04"/>
					<polygon style="opacity:0.3;fill:#FFFFFF;" points="290.58,292.32 290.58,300.08 248.59,300.08 248.59,292.86 261.86,283.03 
						275.51,292.86 283.22,287.94 					"/>
					<path style="opacity:0.3;fill:#FFFFFF;" d="M280.002,277.123c0,2.334-1.892,4.226-4.226,4.226s-4.226-1.892-4.226-4.226
						s1.892-4.226,4.226-4.226S280.002,274.789,280.002,277.123z"/>
				</g>
				<path style="opacity:0.4;fill:#263238;" d="M266.47,303.096h-16.548c-0.966,0-1.749,0.783-1.749,1.749s0.783,1.749,1.749,1.749
					h16.548c0.966,0,1.749-0.783,1.749-1.749S267.436,303.096,266.47,303.096z"/>
				<g>
					<path style="opacity:0.4;fill:#263238;" d="M395.294,269.148h-96.548c-0.966,0-1.749,0.783-1.749,1.749
						s0.783,1.749,1.749,1.749h96.548c0.966,0,1.749-0.783,1.749-1.749S396.26,269.148,395.294,269.148z"/>
					<path style="opacity:0.4;fill:#263238;" d="M395.294,279.148h-96.548c-0.966,0-1.749,0.783-1.749,1.749
						s0.783,1.749,1.749,1.749h96.548c0.966,0,1.749-0.783,1.749-1.749S396.26,279.148,395.294,279.148z"/>
					<path style="opacity:0.4;fill:#263238;" d="M375.294,289.148h-76.548c-0.966,0-1.749,0.783-1.749,1.749
						s0.783,1.749,1.749,1.749h76.548c0.966,0,1.749-0.783,1.749-1.749S376.26,289.148,375.294,289.148z"/>
				</g>
			</g>
			<path style="opacity:0.6;fill:#263238;" d="M270.133,377.836h-24.526c-1.431,0-2.592,1.16-2.592,2.592
				c0,1.431,1.16,2.592,2.592,2.592h24.526c1.431,0,2.592-1.16,2.592-2.592C272.725,378.997,271.565,377.836,270.133,377.836z"/>
			<g>
				<g>
					<defs>
						<rect id="XMLID_105_" x="243.055" y="389.241" width="159.824" height="47.641"/>
					</defs>
					<use xlink:href="#XMLID_105_"  style="overflow:visible;fill:#92E3A9;"/>
					<clipPath id="XMLID_00000093855818864732415110000007590550155885624970_">
						<use xlink:href="#XMLID_105_"  style="overflow:visible;"/>
					</clipPath>
					
						<rect x="243.055" y="389.241" style="opacity:0.6;clip-path:url(#XMLID_00000093855818864732415110000007590550155885624970_);fill:#FFFFFF;" width="159.824" height="47.641"/>
					<use xlink:href="#XMLID_105_"  style="overflow:visible;fill:none;stroke:#263238;stroke-miterlimit:10;"/>
				</g>
				<g>
					<rect x="248.59" y="394.04" style="fill:#263238;" width="41.99" height="32.04"/>
					<polygon style="opacity:0.3;fill:#FFFFFF;" points="290.58,418.32 290.58,426.08 248.59,426.08 248.59,418.86 261.86,409.03 
						275.51,418.86 283.22,413.94 					"/>
					<path style="opacity:0.3;fill:#FFFFFF;" d="M280.002,403.123c0,2.334-1.892,4.226-4.226,4.226s-4.226-1.892-4.226-4.226
						s1.892-4.226,4.226-4.226S280.002,400.789,280.002,403.123z"/>
				</g>
				<path style="opacity:0.4;fill:#263238;" d="M266.47,429.096h-16.548c-0.966,0-1.749,0.783-1.749,1.749s0.783,1.749,1.749,1.749
					h16.548c0.966,0,1.749-0.783,1.749-1.749S267.436,429.096,266.47,429.096z"/>
				<g>
					<path style="opacity:0.4;fill:#263238;" d="M395.294,395.148h-96.548c-0.966,0-1.749,0.783-1.749,1.749
						s0.783,1.749,1.749,1.749h96.548c0.966,0,1.749-0.783,1.749-1.749S396.26,395.148,395.294,395.148z"/>
					<path style="opacity:0.4;fill:#263238;" d="M395.294,405.148h-96.548c-0.966,0-1.749,0.783-1.749,1.749
						s0.783,1.749,1.749,1.749h96.548c0.966,0,1.749-0.783,1.749-1.749S396.26,405.148,395.294,405.148z"/>
					<path style="opacity:0.4;fill:#263238;" d="M375.294,415.148h-76.548c-0.966,0-1.749,0.783-1.749,1.749
						s0.783,1.749,1.749,1.749h76.548c0.966,0,1.749-0.783,1.749-1.749S376.26,415.148,375.294,415.148z"/>
				</g>
			</g>
			<g>
				<g>
					<defs>
						<rect id="XMLID_104_" x="243.055" y="315.241" width="159.824" height="47.641"/>
					</defs>
					<use xlink:href="#XMLID_104_"  style="overflow:visible;fill:#92E3A9;"/>
					<clipPath id="XMLID_00000176748855965535640180000005045685761188501175_">
						<use xlink:href="#XMLID_104_"  style="overflow:visible;"/>
					</clipPath>
					
						<rect x="243.055" y="315.241" style="opacity:0.6;clip-path:url(#XMLID_00000176748855965535640180000005045685761188501175_);fill:#FFFFFF;" width="159.824" height="47.641"/>
					<use xlink:href="#XMLID_104_"  style="overflow:visible;fill:none;stroke:#263238;stroke-miterlimit:10;"/>
				</g>
				<g>
					<rect x="248.59" y="320.04" style="fill:#263238;" width="41.99" height="32.04"/>
					<polygon style="opacity:0.3;fill:#FFFFFF;" points="290.58,344.32 290.58,352.08 248.59,352.08 248.59,344.86 261.86,335.03 
						275.51,344.86 283.22,339.94 					"/>
					<path style="opacity:0.3;fill:#FFFFFF;" d="M280.002,329.123c0,2.334-1.892,4.226-4.226,4.226s-4.226-1.892-4.226-4.226
						s1.892-4.226,4.226-4.226S280.002,326.789,280.002,329.123z"/>
				</g>
				<path style="opacity:0.4;fill:#263238;" d="M266.47,355.096h-16.548c-0.966,0-1.749,0.783-1.749,1.749s0.783,1.749,1.749,1.749
					h16.548c0.966,0,1.749-0.783,1.749-1.749S267.436,355.096,266.47,355.096z"/>
				<g>
					<path style="opacity:0.4;fill:#263238;" d="M395.294,321.148h-96.548c-0.966,0-1.749,0.783-1.749,1.749
						s0.783,1.749,1.749,1.749h96.548c0.966,0,1.749-0.783,1.749-1.749S396.26,321.148,395.294,321.148z"/>
					<path style="opacity:0.4;fill:#263238;" d="M395.294,331.148h-96.548c-0.966,0-1.749,0.783-1.749,1.749
						s0.783,1.749,1.749,1.749h96.548c0.966,0,1.749-0.783,1.749-1.749S396.26,331.148,395.294,331.148z"/>
					<path style="opacity:0.4;fill:#263238;" d="M375.294,341.148h-76.548c-0.966,0-1.749,0.783-1.749,1.749
						s0.783,1.749,1.749,1.749h76.548c0.966,0,1.749-0.783,1.749-1.749S376.26,341.148,375.294,341.148z"/>
				</g>
			</g>
			<path style="opacity:0.4;fill:#263238;" d="M210.076,340.625h-47.548c-0.966,0-1.749,0.783-1.749,1.749
				c0,0.966,0.783,1.749,1.749,1.749h47.548c0.966,0,1.749-0.783,1.749-1.749C211.825,341.408,211.042,340.625,210.076,340.625z"/>
			<path style="opacity:0.4;fill:#263238;" d="M210.076,421.589h-47.548c-0.966,0-1.749,0.783-1.749,1.749
				c0,0.966,0.783,1.749,1.749,1.749h47.548c0.966,0,1.749-0.783,1.749-1.749C211.825,422.372,211.042,421.589,210.076,421.589z"/>
			<path style="opacity:0.4;fill:#263238;" d="M210.076,381.107h-47.548c-0.966,0-1.749,0.783-1.749,1.749s0.783,1.749,1.749,1.749
				h47.548c0.966,0,1.749-0.783,1.749-1.749S211.042,381.107,210.076,381.107z"/>
		</g>
		<g>
			<g>
				<defs>
					<path id="XMLID_92_" d="M349.846,181.169c14.23,4.677,48.819,23.139,54.733,31.051s1.695,24.367-11.492,28.535
						c-13.187,4.168-74.901,0-74.901,0s-4.967,3.229-6.44,1.852c-1.473-1.377-2.042-24.04,3.185-23.86
						c4.207,0.145,5.88,2.169,5.88,2.169l26.914-5.095c0,0-9.033-10.59-9.033-21.422"/>
				</defs>
				<use xlink:href="#XMLID_92_"  style="overflow:visible;fill:#92E3A9;"/>
				<clipPath id="XMLID_00000074417158449930190660000017784670406798443140_">
					<use xlink:href="#XMLID_92_"  style="overflow:visible;"/>
				</clipPath>
				<path style="opacity:0.2;clip-path:url(#XMLID_00000074417158449930190660000017784670406798443140_);" d="M393.09,240.76
					c-13.19,4.16-74.9,0-74.9,0s-4.97,3.22-6.44,1.85c-0.84-0.78-1.38-8.38-0.74-14.8c0.78,3.33,1.77,7.07,2.46,8.17
					c1.32,2.11,6.32,0,6.32,0c-0.81-7.12,1.01-13.23,1.01-13.23l5.17,11.12c0,0,49.48,2.9,67.68-4.75c7.57-3.18,10.81-9.21,12-15.16
					C409.87,222.33,405.37,236.88,393.09,240.76z"/>
				<path style="opacity:0.2;clip-path:url(#XMLID_00000074417158449930190660000017784670406798443140_);" d="M362.47,212.79
					l-14.77,3c-0.19-0.24-1.51-1.83-3.07-4.28v-0.01c0.17-3.93,0.72-9.12,2.39-11.13c2.85-3.42,2.32,5.53,4.96,10.55
					c0,0,10.15-8.2,14.17-6.34C370.18,206.44,364.97,206.83,362.47,212.79z"/>
				
					<use xlink:href="#XMLID_92_"  style="overflow:visible;fill:none;stroke:#263238;stroke-linecap:round;stroke-linejoin:round;stroke-miterlimit:10;"/>
			</g>
			<path style="fill:none;stroke:#263238;stroke-linecap:round;stroke-linejoin:round;stroke-miterlimit:10;" d="M381.503,216.23
				c1.354,1.07,2.54,2.437,3.08,4.1"/>
			<path style="fill:none;stroke:#263238;stroke-linecap:round;stroke-linejoin:round;stroke-miterlimit:10;" d="M347.725,215.821
				c10.468-1.703,20.586-6.706,30.76-1.512"/>
			<path style="fill:none;stroke:#263238;stroke-linecap:round;stroke-linejoin:round;stroke-miterlimit:10;" d="M381.051,209.611
				c0.981,0.263,1.964,0.647,2.74,1.313"/>
			<path style="fill:none;stroke:#263238;stroke-linecap:round;stroke-linejoin:round;stroke-miterlimit:10;" d="M361.988,212.69
				c3.516-4.403,10.647-4.175,15.67-3.684"/>
			<path style="fill:none;stroke:#263238;stroke-linecap:round;stroke-linejoin:round;stroke-miterlimit:10;" d="M321.818,220.725
				c0,0-2.938,4.352-1.751,9.692"/>
			<path style="fill:none;stroke:#263238;stroke-linecap:round;stroke-linejoin:round;stroke-miterlimit:10;" d="M340.692,210.166
				c1.26,0.946,2.709,1.673,4.282,1.894"/>
			<path style="fill:none;stroke:#263238;stroke-linecap:round;stroke-linejoin:round;stroke-miterlimit:10;" d="M335.725,204.578
				c0.73,1.189,1.583,2.305,2.52,3.338"/>
		</g>
	</g>
</g>
</svg>
